<!--?xml version="1.0" encoding="utf-8"?-->
<!-- Generator: Adobe Illustrator 16.0.0, SVG Export Plug-In . SVG Version: 6.00 Build 0)  -->

<svg version="1.1" xmlns="http://www.w3.org/2000/svg" xmlns:xlink="http://www.w3.org/1999/xlink" x="0px" y="0px" width="335.986px" height="235.19px" viewBox="0 0 335.986 235.19" enable-background="new 0 0 335.986 235.19" xml:space="preserve" style="">
<g id="bg">
	<g>
		<g>
			<path fill="#F5F5F5" width="335.987" height="235.189" d="M0 0 L335.987 0 L335.987 235.189 L0 235.189 Z" class="ucqAbEAF_0"></path>
		</g>
	</g>
	<path fill="#DCDBDD" d="M245.764,151.055c0,2.525-2.049,4.57-4.57,4.57H95.523c-2.525,0-4.57-2.045-4.57-4.57V64.226
		c0-2.524,2.044-4.573,4.57-4.573h145.67c2.521,0,4.57,2.049,4.57,4.573V151.055z" class="ucqAbEAF_1"></path>
	<path fill="#4E4E4E" width="142.242" height="81.97" d="M97.237 66.655 L239.47899999999998 66.655 L239.47899999999998 148.625 L97.237 148.625 Z" class="ucqAbEAF_2"></path>
	<g>
		<path fill="#DCDBDD" d="M243.477,155.625L168.357,155.625L168.357,176.762L273.182,176.762Z" class="ucqAbEAF_3"></path>
		<path fill="#DCDBDD" d="M63.533,176.762L168.357,176.762L168.357,155.625L93.237,155.625Z" class="ucqAbEAF_4"></path>
	</g>
	<path fill="#C6C6C5" width="209.648" height="6.711" d="M63.533 176.762 L273.181 176.762 L273.181 183.473 L63.533 183.473 Z" class="ucqAbEAF_5"></path>
	<g>
		<path fill="#5A5A5A" d="M252.916,170.656L84.247,170.586L99.316,158.729L241.483,158.729Z" class="ucqAbEAF_6"></path>
	</g>
	<path opacity="0.1" fill="#1D1D1B" width="67.409" height="86.209" d="M37.375 26.301 L104.784 26.301 L104.784 112.51 L37.375 112.51 Z" class="ucqAbEAF_7"></path>
	<path fill="#FFFFFF" width="67.409" height="86.209" d="M44.713 19.756 L112.12200000000001 19.756 L112.12200000000001 105.965 L44.713 105.965 Z" class="ucqAbEAF_8"></path>
	<path fill="#FF643A" width="67.409" height="10.233" d="M44.713 19.756 L112.12200000000001 19.756 L112.12200000000001 29.989 L44.713 29.989 Z" class="ucqAbEAF_9"></path>
	<path fill="#ADFDF4" d="M51.775,24.631A2.329,2.329 0,1,1 56.433,24.631A2.329,2.329 0,1,1 51.775,24.631" class="ucqAbEAF_10"></path>
	<path fill="#ADFDF4" d="M60.159,24.631A2.328,2.328 0,1,1 64.815,24.631A2.328,2.328 0,1,1 60.159,24.631" class="ucqAbEAF_11"></path>
	<path fill="#ADFDF4" d="M68.544,24.631A2.328,2.328 0,1,1 73.2,24.631A2.328,2.328 0,1,1 68.544,24.631" class="ucqAbEAF_12"></path>
	<path fill="#ADFDF4" d="M100.73899999999999,24.631A2.328,2.328 0,1,1 105.395,24.631A2.328,2.328 0,1,1 100.73899999999999,24.631" class="ucqAbEAF_13"></path>
	<path opacity="0.1" fill="#1D1D1B" width="67.41" height="86.209" d="M226.303 129.994 L293.71299999999997 129.994 L293.71299999999997 216.203 L226.303 216.203 Z" class="ucqAbEAF_14"></path>
	<path fill="#FFFFFF" width="67.409" height="86.209" d="M233.641 123.449 L301.05 123.449 L301.05 209.65800000000002 L233.641 209.65800000000002 Z" class="ucqAbEAF_15"></path>
	<path fill="#FF643A" width="67.409" height="10.232" d="M233.641 123.449 L301.05 123.449 L301.05 133.68099999999998 L233.641 133.68099999999998 Z" class="ucqAbEAF_16"></path>
	<path fill="#ADFDF4" d="M240.703,128.324A2.328,2.328 0,1,1 245.359,128.324A2.328,2.328 0,1,1 240.703,128.324" class="ucqAbEAF_17"></path>
	<path fill="#ADFDF4" d="M249.088,128.324A2.327,2.327 0,1,1 253.742,128.324A2.327,2.327 0,1,1 249.088,128.324" class="ucqAbEAF_18"></path>
	<path fill="#ADFDF4" d="M257.471,128.324A2.328,2.328 0,1,1 262.12699999999995,128.324A2.328,2.328 0,1,1 257.471,128.324" class="ucqAbEAF_19"></path>
	<path fill="#ADFDF4" d="M289.666,128.324A2.329,2.329 0,1,1 294.324,128.324A2.329,2.329 0,1,1 289.666,128.324" class="ucqAbEAF_20"></path>
	<path fill="#F2F0F1" width="5.64" height="4.484" d="M125.288 91.981 L130.928 91.981 L130.928 96.46499999999999 L125.288 96.46499999999999 Z" class="ucqAbEAF_21"></path>
	<path fill="#F2F0F1" width="36.465" height="4.484" d="M135.503 91.981 L171.968 91.981 L171.968 96.46499999999999 L135.503 96.46499999999999 Z" class="ucqAbEAF_22"></path>
	<path fill="#F2F0F1" width="5.64" height="4.484" d="M125.288 100.665 L130.928 100.665 L130.928 105.149 L125.288 105.149 Z" class="ucqAbEAF_23"></path>
	<path fill="#F2F0F1" width="11.079" height="4.484" d="M158.287 100.665 L169.366 100.665 L169.366 105.149 L158.287 105.149 Z" class="ucqAbEAF_24"></path>
	<path fill="#F2F0F1" width="33.149" height="4.484" d="M177.366 100.665 L210.51500000000001 100.665 L210.51500000000001 105.149 L177.366 105.149 Z" class="ucqAbEAF_25"></path>
	<path fill="#F2F0F1" width="35.13" height="4.484" d="M177.366 118.032 L212.496 118.032 L212.496 122.51599999999999 L177.366 122.51599999999999 Z" class="ucqAbEAF_26"></path>
	<path fill="#F2F0F1" width="26.591" height="4.483" d="M192.946 109.865 L219.537 109.865 L219.537 114.348 L192.946 114.348 Z" class="ucqAbEAF_27"></path>
	<path fill="#F2F0F1" width="13.295" height="4.483" d="M177.366 109.865 L190.661 109.865 L190.661 114.348 L177.366 114.348 Z" class="ucqAbEAF_28"></path>
	<path fill="#F2F0F1" width="2.47" height="4.484" d="M171.969 100.665 L174.439 100.665 L174.439 105.149 L171.969 105.149 Z" class="ucqAbEAF_29"></path>
	<path fill="#F2F0F1" width="28.35" height="4.484" d="M171.969 128.957 L200.319 128.957 L200.319 133.441 L171.969 133.441 Z" class="ucqAbEAF_30"></path>
	<path fill="#F2F0F1" width="2.47" height="4.484" d="M171.969 118.032 L174.439 118.032 L174.439 122.51599999999999 L171.969 122.51599999999999 Z" class="ucqAbEAF_31"></path>
	<path fill="#F2F0F1" width="11.079" height="4.484" d="M158.287 109.348 L169.366 109.348 L169.366 113.832 L158.287 113.832 Z" class="ucqAbEAF_32"></path>
	<path fill="#F2F0F1" width="11.079" height="4.484" d="M158.287 118.032 L169.366 118.032 L169.366 122.51599999999999 L158.287 122.51599999999999 Z" class="ucqAbEAF_33"></path>
	<path fill="#F2F0F1" width="5.64" height="4.484" d="M125.288 109.348 L130.928 109.348 L130.928 113.832 L125.288 113.832 Z" class="ucqAbEAF_34"></path>
	<path fill="#F2F0F1" width="5.64" height="4.484" d="M125.288 118.032 L130.928 118.032 L130.928 122.51599999999999 L125.288 122.51599999999999 Z" class="ucqAbEAF_35"></path>
	<path fill="#F2F0F1" width="5.64" height="4.484" d="M125.288 126.715 L130.928 126.715 L130.928 131.199 L125.288 131.199 Z" class="ucqAbEAF_36"></path>
	<path fill-rule="evenodd" clip-rule="evenodd" fill="#FF643A" d="M160.417,80.918L155.796,85.54L160.417,90.16L
		161.737,88.839L158.437,85.54L161.737,82.239Z" class="ucqAbEAF_37"></path>
	<path fill-rule="evenodd" clip-rule="evenodd" fill="#FF643A" d="M157.117,134.471L161.737,129.852L157.117,125.23L
		155.796,126.551L159.097,129.852L155.796,133.15Z" class="ucqAbEAF_38"></path>
	
		<path fill-rule="evenodd" clip-rule="evenodd" fill="#FF643A" stroke="#FF643A" stroke-width="2" stroke-miterlimit="10" d="M151.028,133.729L153.578,125.973" class="ucqAbEAF_39"></path>
	<g>
		<path fill="#DCDBDD" width="126.053" height="20.396" d="M84.489 199.641 L210.542 199.641 L210.542 220.03699999999998 L84.489 220.03699999999998 Z" class="ucqAbEAF_40"></path>
	</g>
	<g>
		<path fill="#4E4E4E" width="22.667" height="20.396" d="M187.875 199.641 L210.542 199.641 L210.542 220.03699999999998 L187.875 220.03699999999998 Z" class="ucqAbEAF_41"></path>
	</g>
	<g opacity="0.1">
		<path fill="#4E4E4E" width="92.631" height="13.262" d="M90.244 203.051 L182.875 203.051 L182.875 216.313 L90.244 216.313 Z" class="ucqAbEAF_42"></path>
	</g>
	<g>
		<path fill="#FFFFFF" d="M204.551,213.363l-2.871-2.637c0.328-0.652,0.52-1.387,0.52-2.17c0-2.666-2.16-4.824-4.824-4.824
			c-2.662,0-4.822,2.158-4.822,4.824c0,2.662,2.16,4.824,4.822,4.824c0.785,0,1.518-0.191,2.171-0.521l2.636,2.871
			c0.262,0.277,0.684,0.285,0.955,0.02l1.434-1.43C204.837,214.051,204.828,213.621,204.551,213.363z M197.375,211.496
			c-1.624,0-2.939-1.314-2.939-2.939s1.315-2.943,2.939-2.943c1.627,0,2.947,1.318,2.947,2.943S199.002,211.496,197.375,211.496z" class="ucqAbEAF_43"></path>
	</g>
	<path fill="#4E4E4E" d="M54.537,72.484A23.606,23.606 0,1,1 101.749,72.484A23.606,23.606 0,1,1 54.537,72.484" class="ucqAbEAF_44"></path>
	<g>
		<path fill="#FFFFFF" d="M78.813,72.484v-16.44c-0.225-0.01-0.444-0.035-0.67-0.035c-9.099,0-16.475,7.377-16.475,16.476
			c0,9.1,7.376,16.475,16.475,16.475c4.72,0,8.965-1.994,11.969-5.177L78.813,72.484z" class="ucqAbEAF_45"></path>
	</g>
	<path fill="#FF643A" d="M69.315,66.757c0,1.077-0.873,1.949-1.949,1.949h-46.54c-1.076,0-1.949-0.872-1.949-1.949V40.871
		c0-1.076,0.873-1.949,1.949-1.949h46.54c1.076,0,1.949,0.873,1.949,1.949V66.757z" class="ucqAbEAF_46"></path>
	<text transform="matrix(1.139 0 0 1 24.1343 58.5103)" fill="#FFFFFF" font-family="'Roboto-Bold'" font-size="12.8958">HTTP</text>
	<path fill="#4E4E4E" d="M244.537,164.732A23.629,23.629 0,1,1 291.795,164.732A23.629,23.629 0,1,1 244.537,164.732" class="ucqAbEAF_47"></path>
	<g>
		<path fill="#FFFFFF" d="M268.838,164.732v-16.457c-0.225-0.01-0.445-0.035-0.672-0.035c-9.107,0-16.491,7.383-16.491,16.492
			c0,9.107,7.384,16.49,16.491,16.49s16.491-7.383,16.491-16.49H268.838z" class="ucqAbEAF_48"></path>
	</g>
	<path fill="#FF643A" d="M317.12,198.348c0,1.078-0.872,1.949-1.948,1.949h-46.541c-1.076,0-1.948-0.871-1.948-1.949v-25.887
		c0-1.076,0.872-1.949,1.948-1.949h46.541c1.076,0,1.948,0.873,1.948,1.949V198.348z" class="ucqAbEAF_49"></path>
	<text transform="matrix(1.139 0 0 1 271.9395 190.1016)" fill="#FFFFFF" font-family="'Roboto-Bold'" font-size="12.8958">WWW</text>
	<g>
		<g id="Body_5_">
			<g>
				<path fill="#DCDBDD" d="M261.428,52.923v36.964c0,2.152,1.743,3.896,3.893,3.896h46.693c2.148,0,3.892-1.744,3.892-3.896V52.923
					H261.428z" class="ucqAbEAF_50"></path>
			</g>
		</g>
		<g id="Body_3_">
			<g>
				<path fill="#4E4E4E" d="M312.014,31.523H265.32c-2.149,0-3.893,1.74-3.893,3.889v17.512h54.478V35.412
					C315.905,33.263,314.162,31.523,312.014,31.523z" class="ucqAbEAF_51"></path>
			</g>
		</g>
		<g id="Display_2_">
			<g>
				<path fill="#FFFFFF" d="M308.123,37.359h-38.912c-1.076,0-1.946,0.87-1.946,1.946v7.783c0,1.076,0.87,1.946,1.946,1.946h38.912
					c1.073,0,1.944-0.87,1.944-1.946v-7.783C310.067,38.229,309.196,37.359,308.123,37.359z" class="ucqAbEAF_52"></path>
			</g>
		</g>
		<g id="Keypad_2_">
			<g>
				<path fill-rule="evenodd" clip-rule="evenodd" fill="#999999" d="M273.103,56.813h-3.892c-1.076,0-1.946,0.875-1.946,1.951
					v3.886c0,1.076,0.87,1.95,1.946,1.95h3.892c1.072,0,1.944-0.874,1.944-1.95v-3.886
					C275.047,57.688,274.175,56.813,273.103,56.813z M273.103,68.489h-3.892c-1.076,0-1.946,0.87-1.946,1.943v3.894
					c0,1.076,0.87,1.946,1.946,1.946h3.892c1.072,0,1.944-0.87,1.944-1.946v-3.894C275.047,69.359,274.175,68.489,273.103,68.489z
					 M273.103,80.162h-3.892c-1.076,0-1.946,0.874-1.946,1.946v3.891c0,1.076,0.87,1.946,1.946,1.946h3.892
					c1.072,0,1.944-0.87,1.944-1.946v-3.891C275.047,81.036,274.175,80.162,273.103,80.162z M284.776,56.813h-3.892
					c-1.076,0-1.945,0.875-1.945,1.951v3.886c0,1.076,0.869,1.95,1.945,1.95h3.892c1.072,0,1.944-0.874,1.944-1.95v-3.886
					C286.721,57.688,285.849,56.813,284.776,56.813z M284.776,68.489h-3.892c-1.076,0-1.945,0.87-1.945,1.943v3.894
					c0,1.076,0.869,1.946,1.945,1.946h3.892c1.072,0,1.944-0.87,1.944-1.946v-3.894C286.721,69.359,285.849,68.489,284.776,68.489z
					 M284.776,80.162h-3.892c-1.076,0-1.945,0.874-1.945,1.946v3.891c0,1.076,0.869,1.946,1.945,1.946h3.892
					c1.072,0,1.944-0.87,1.944-1.946v-3.891C286.721,81.036,285.849,80.162,284.776,80.162z M296.449,56.813h-3.891
					c-1.076,0-1.947,0.875-1.947,1.951v3.886c0,1.076,0.871,1.95,1.947,1.95h3.891c1.074,0,1.946-0.874,1.946-1.95v-3.886
					C298.396,57.688,297.523,56.813,296.449,56.813z M296.449,68.489h-3.891c-1.076,0-1.947,0.87-1.947,1.943v3.894
					c0,1.076,0.871,1.946,1.947,1.946h3.891c1.074,0,1.946-0.87,1.946-1.946v-3.894C298.396,69.359,297.523,68.489,296.449,68.489z
					 M296.449,80.162h-3.891c-1.076,0-1.947,0.874-1.947,1.946v3.891c0,1.076,0.871,1.946,1.947,1.946h3.891
					c1.074,0,1.946-0.87,1.946-1.946v-3.891C298.396,81.036,297.523,80.162,296.449,80.162z M308.123,56.813h-3.892
					c-1.075,0-1.944,0.875-1.944,1.951v3.886c0,1.076,0.869,1.95,1.944,1.95h3.892c1.073,0,1.944-0.874,1.944-1.95v-3.886
					C310.067,57.688,309.196,56.813,308.123,56.813z" class="ucqAbEAF_53"></path>
			</g>
		</g>
		<g id="Key_2_">
			<g>
				<path fill="#FF643A" d="M308.123,68.489h-3.892c-1.075,0-1.944,0.87-1.944,1.943v15.566c0,1.076,0.869,1.946,1.944,1.946h3.892
					c1.073,0,1.944-0.87,1.944-1.946V70.432C310.067,69.359,309.196,68.489,308.123,68.489z" class="ucqAbEAF_54"></path>
			</g>
		</g>
	</g>
	<g>
		<path fill="#4E4E4E" width="28.316" height="29.639" d="M133.475 15.17 L161.791 15.17 L161.791 44.809 L133.475 44.809 Z" class="ucqAbEAF_55"></path>
	</g>
	<g>
		<path fill="#DCDBDD" width="81.841" height="29.639" d="M161.791 15.17 L243.632 15.17 L243.632 44.809 L161.791 44.809 Z" class="ucqAbEAF_56"></path>
	</g>
	<g>
		<path fill="#FF643A" d="M156.695,29.99c0,5.005-4.058,9.062-9.064,9.062c-5.002,0-9.064-4.058-9.064-9.062
			c0-5.006,4.062-9.065,9.064-9.065C152.637,20.924,156.695,24.984,156.695,29.99z" class="ucqAbEAF_57"></path>
	</g>
	<g>
		<path fill="#FFFFFF" d="M144.097,33.763c0,0.752,0.525,1.046,1.164,0.652l6.086-3.713c0.641-0.395,0.641-1.033,0-1.427
			l-6.086-3.714c-0.639-0.392-1.164-0.096-1.164,0.654V33.763z" class="ucqAbEAF_58"></path>
	</g>
	<path fill="#FFFFFF" width="67.553" height="7.805" d="M169.487 22.064 L237.04 22.064 L237.04 29.869 L169.487 29.869 Z" class="ucqAbEAF_59"></path>
	
		<path fill="#333333" stroke="#4E4E4E" stroke-width="3" stroke-linecap="round" stroke-miterlimit="10" d="M170.111,37.914L237.04,37.914" class="ucqAbEAF_60"></path>
	<path fill="#FF643A" d="M215.539,37.915A3.366,3.366 0,1,1 222.27100000000002,37.915A3.366,3.366 0,1,1 215.539,37.915" class="ucqAbEAF_61"></path>
	<path opacity="0.1" fill="#1D1D1B" d="M76.583,143.266H62.399v-0.006h-4.361v0.006H33.817c-0.685,0-1.25,0.557-1.25,1.244v14.863
		H17.709c-0.686,0-1.25,0.557-1.25,1.246v48.42c0,0.693,0.564,1.25,1.25,1.25h42.766c0.514,0,0.959-0.314,1.149-0.762V194.18h14.958
		c0.514,0,0.958-0.312,1.149-0.758v-49.398C77.541,143.578,77.097,143.266,76.583,143.266z" class="ucqAbEAF_62"></path>
	<path fill="#4E4E4E" width="40.024" height="44.275" d="M40.356 138.529 L80.38 138.529 L80.38 182.804 L40.356 182.804 Z" class="ucqAbEAF_63"></path>
	<path fill="#FFFFFF" d="M80.92,135.869H66.736v-0.006h-4.361v0.006H38.154c-0.685,0-1.25,0.557-1.25,1.246v48.42
		c0,0.691,0.564,1.25,1.25,1.25H80.92c0.514,0,0.958-0.314,1.149-0.76v-49.398C81.878,136.182,81.434,135.869,80.92,135.869z
		 M76.826,173.188H42.249v-31.916h34.578V173.188z" class="ucqAbEAF_64"></path>
	<path fill="#C6C6C5" width="40.025" height="44.275" d="M24.248 154.637 L64.273 154.637 L64.273 198.912 L24.248 198.912 Z" class="ucqAbEAF_65"></path>
	<path fill="#FFFFFF" d="M64.812,151.977H50.629v-0.006h-4.362v0.006H22.046c-0.686,0-1.25,0.559-1.25,1.246v48.42
		c0,0.693,0.564,1.25,1.25,1.25h42.766c0.514,0,0.959-0.314,1.149-0.76v-49.396C65.771,152.289,65.327,151.977,64.812,151.977z
		 M60.718,189.297H26.141v-31.918h34.578V189.297z" class="ucqAbEAF_66"></path>
	<g>
		<path fill="#FF643A" d="M52.444,173.1c0,5.004-4.058,9.062-9.064,9.062c-5.002,0-9.064-4.059-9.064-9.062
			c0-5.006,4.062-9.066,9.064-9.066C48.386,164.033,52.444,168.094,52.444,173.1z" class="ucqAbEAF_67"></path>
	</g>
	<g>
		<path fill="#FFFFFF" d="M39.845,176.873c0,0.752,0.525,1.045,1.164,0.652l6.086-3.713c0.641-0.395,0.641-1.033,0-1.428
			l-6.086-3.713c-0.639-0.393-1.164-0.096-1.164,0.654V176.873z" class="ucqAbEAF_68"></path>
	</g>
	<path fill="#C6C6C5" d="M289.447,105.84L284.709,99.988L282.969,101.727L281.229,103.467L287.082,108.205L287.529,111.736L
		290.254,109.011L292.979,106.286Z" class="ucqAbEAF_69"></path>
	<g>
		<path fill="#6E6058" d="M290.254,109.011L293.119,111.876" class="ucqAbEAF_70"></path>
		<path fill="#6E6058" d="M290.783,108.481L293.119,111.876L289.723,109.542Z" class="ucqAbEAF_71"></path>
	</g>
	<path fill="#FF643A" d="M272.25,108.772L264.762,107.984L264.76,110.444L264.76,112.905L272.25,112.116L275.062,114.297L
		275.062,110.444L275.061,106.59Z" class="ucqAbEAF_72"></path>
	<g>
		<path fill="#6E6058" d="M275.062,110.444L279.113,110.444" class="ucqAbEAF_73"></path>
		<path fill="#6E6058" d="M275.062,109.694L279.113,110.444L275.062,111.194Z" class="ucqAbEAF_74"></path>
	</g>
	<path fill="#4E4E4E" d="M314.233,119.961L313.445,127.449L315.905,127.451L318.366,127.451L317.577,119.961L
		319.759,117.149L315.905,117.149L312.052,117.15Z" class="ucqAbEAF_75"></path>
	<g>
		<path fill="#6E6058" d="M315.905,117.149L315.905,113.097" class="ucqAbEAF_76"></path>
		<path fill="#6E6058" d="M315.155,117.149L315.905,113.097L316.655,117.149Z" class="ucqAbEAF_77"></path>
	</g>
	<path fill="#C6C6C5" d="M23.879,107.088L18.026,111.826L19.766,113.566L21.506,115.306L26.243,109.453L29.774,109.006L
		27.05,106.282L24.324,103.557Z" class="ucqAbEAF_78"></path>
	<g>
		<path fill="#6E6058" d="M27.05,106.282L29.915,103.417" class="ucqAbEAF_79"></path>
		<path fill="#6E6058" d="M26.52,105.751L29.915,103.417L27.58,106.812Z" class="ucqAbEAF_80"></path>
	</g>
	<path fill="#FF643A" d="M26.811,124.285L26.022,131.773L28.482,131.775L30.943,131.775L30.154,124.285L32.336,121.473L
		28.482,121.473L24.629,121.475Z" class="ucqAbEAF_81"></path>
	<g>
		<path fill="#6E6058" d="M28.482,121.473L28.482,117.421" class="ucqAbEAF_82"></path>
		<path fill="#6E6058" d="M27.732,121.473L28.482,117.421L29.232,121.473Z" class="ucqAbEAF_83"></path>
	</g>
</g>
<g id="text">
</g>
<g id="Layer_1">
</g>
<g id="Layer_3">
</g>
<g id="Layer_4">
</g>
<g id="Layer_5">
</g>
<g id="Layer_6">
</g>
<g id="Layer_7">
</g>
<style data-made-with="vivus-instant">.ucqAbEAF_0{stroke-dasharray:1143 1145;stroke-dashoffset:1144;animation:ucqAbEAF_draw_0 5000ms linear 0ms infinite,ucqAbEAF_fade 5000ms linear 0ms infinite;}.ucqAbEAF_1{stroke-dasharray:494 496;stroke-dashoffset:495;animation:ucqAbEAF_draw_1 5000ms linear 0ms infinite,ucqAbEAF_fade 5000ms linear 0ms infinite;}.ucqAbEAF_2{stroke-dasharray:449 451;stroke-dashoffset:450;animation:ucqAbEAF_draw_2 5000ms linear 0ms infinite,ucqAbEAF_fade 5000ms linear 0ms infinite;}.ucqAbEAF_3{stroke-dasharray:238 240;stroke-dashoffset:239;animation:ucqAbEAF_draw_3 5000ms linear 0ms infinite,ucqAbEAF_fade 5000ms linear 0ms infinite;}.ucqAbEAF_4{stroke-dasharray:238 240;stroke-dashoffset:239;animation:ucqAbEAF_draw_4 5000ms linear 0ms infinite,ucqAbEAF_fade 5000ms linear 0ms infinite;}.ucqAbEAF_5{stroke-dasharray:433 435;stroke-dashoffset:434;animation:ucqAbEAF_draw_5 5000ms linear 0ms infinite,ucqAbEAF_fade 5000ms linear 0ms infinite;}.ucqAbEAF_6{stroke-dasharray:347 349;stroke-dashoffset:348;animation:ucqAbEAF_draw_6 5000ms linear 0ms infinite,ucqAbEAF_fade 5000ms linear 0ms infinite;}.ucqAbEAF_7{stroke-dasharray:308 310;stroke-dashoffset:309;animation:ucqAbEAF_draw_7 5000ms linear 0ms infinite,ucqAbEAF_fade 5000ms linear 0ms infinite;}.ucqAbEAF_8{stroke-dasharray:308 310;stroke-dashoffset:309;animation:ucqAbEAF_draw_8 5000ms linear 0ms infinite,ucqAbEAF_fade 5000ms linear 0ms infinite;}.ucqAbEAF_9{stroke-dasharray:156 158;stroke-dashoffset:157;animation:ucqAbEAF_draw_9 5000ms linear 0ms infinite,ucqAbEAF_fade 5000ms linear 0ms infinite;}.ucqAbEAF_10{stroke-dasharray:15 17;stroke-dashoffset:16;animation:ucqAbEAF_draw_10 5000ms linear 0ms infinite,ucqAbEAF_fade 5000ms linear 0ms infinite;}.ucqAbEAF_11{stroke-dasharray:15 17;stroke-dashoffset:16;animation:ucqAbEAF_draw_11 5000ms linear 0ms infinite,ucqAbEAF_fade 5000ms linear 0ms infinite;}.ucqAbEAF_12{stroke-dasharray:15 17;stroke-dashoffset:16;animation:ucqAbEAF_draw_12 5000ms linear 0ms infinite,ucqAbEAF_fade 5000ms linear 0ms infinite;}.ucqAbEAF_13{stroke-dasharray:15 17;stroke-dashoffset:16;animation:ucqAbEAF_draw_13 5000ms linear 0ms infinite,ucqAbEAF_fade 5000ms linear 0ms infinite;}.ucqAbEAF_14{stroke-dasharray:308 310;stroke-dashoffset:309;animation:ucqAbEAF_draw_14 5000ms linear 0ms infinite,ucqAbEAF_fade 5000ms linear 0ms infinite;}.ucqAbEAF_15{stroke-dasharray:308 310;stroke-dashoffset:309;animation:ucqAbEAF_draw_15 5000ms linear 0ms infinite,ucqAbEAF_fade 5000ms linear 0ms infinite;}.ucqAbEAF_16{stroke-dasharray:156 158;stroke-dashoffset:157;animation:ucqAbEAF_draw_16 5000ms linear 0ms infinite,ucqAbEAF_fade 5000ms linear 0ms infinite;}.ucqAbEAF_17{stroke-dasharray:15 17;stroke-dashoffset:16;animation:ucqAbEAF_draw_17 5000ms linear 0ms infinite,ucqAbEAF_fade 5000ms linear 0ms infinite;}.ucqAbEAF_18{stroke-dasharray:15 17;stroke-dashoffset:16;animation:ucqAbEAF_draw_18 5000ms linear 0ms infinite,ucqAbEAF_fade 5000ms linear 0ms infinite;}.ucqAbEAF_19{stroke-dasharray:15 17;stroke-dashoffset:16;animation:ucqAbEAF_draw_19 5000ms linear 0ms infinite,ucqAbEAF_fade 5000ms linear 0ms infinite;}.ucqAbEAF_20{stroke-dasharray:15 17;stroke-dashoffset:16;animation:ucqAbEAF_draw_20 5000ms linear 0ms infinite,ucqAbEAF_fade 5000ms linear 0ms infinite;}.ucqAbEAF_21{stroke-dasharray:21 23;stroke-dashoffset:22;animation:ucqAbEAF_draw_21 5000ms linear 0ms infinite,ucqAbEAF_fade 5000ms linear 0ms infinite;}.ucqAbEAF_22{stroke-dasharray:82 84;stroke-dashoffset:83;animation:ucqAbEAF_draw_22 5000ms linear 0ms infinite,ucqAbEAF_fade 5000ms linear 0ms infinite;}.ucqAbEAF_23{stroke-dasharray:21 23;stroke-dashoffset:22;animation:ucqAbEAF_draw_23 5000ms linear 0ms infinite,ucqAbEAF_fade 5000ms linear 0ms infinite;}.ucqAbEAF_24{stroke-dasharray:32 34;stroke-dashoffset:33;animation:ucqAbEAF_draw_24 5000ms linear 0ms infinite,ucqAbEAF_fade 5000ms linear 0ms infinite;}.ucqAbEAF_25{stroke-dasharray:76 78;stroke-dashoffset:77;animation:ucqAbEAF_draw_25 5000ms linear 0ms infinite,ucqAbEAF_fade 5000ms linear 0ms infinite;}.ucqAbEAF_26{stroke-dasharray:80 82;stroke-dashoffset:81;animation:ucqAbEAF_draw_26 5000ms linear 0ms infinite,ucqAbEAF_fade 5000ms linear 0ms infinite;}.ucqAbEAF_27{stroke-dasharray:63 65;stroke-dashoffset:64;animation:ucqAbEAF_draw_27 5000ms linear 0ms infinite,ucqAbEAF_fade 5000ms linear 0ms infinite;}.ucqAbEAF_28{stroke-dasharray:36 38;stroke-dashoffset:37;animation:ucqAbEAF_draw_28 5000ms linear 0ms infinite,ucqAbEAF_fade 5000ms linear 0ms infinite;}.ucqAbEAF_29{stroke-dasharray:14 16;stroke-dashoffset:15;animation:ucqAbEAF_draw_29 5000ms linear 0ms infinite,ucqAbEAF_fade 5000ms linear 0ms infinite;}.ucqAbEAF_30{stroke-dasharray:66 68;stroke-dashoffset:67;animation:ucqAbEAF_draw_30 5000ms linear 0ms infinite,ucqAbEAF_fade 5000ms linear 0ms infinite;}.ucqAbEAF_31{stroke-dasharray:14 16;stroke-dashoffset:15;animation:ucqAbEAF_draw_31 5000ms linear 0ms infinite,ucqAbEAF_fade 5000ms linear 0ms infinite;}.ucqAbEAF_32{stroke-dasharray:32 34;stroke-dashoffset:33;animation:ucqAbEAF_draw_32 5000ms linear 0ms infinite,ucqAbEAF_fade 5000ms linear 0ms infinite;}.ucqAbEAF_33{stroke-dasharray:32 34;stroke-dashoffset:33;animation:ucqAbEAF_draw_33 5000ms linear 0ms infinite,ucqAbEAF_fade 5000ms linear 0ms infinite;}.ucqAbEAF_34{stroke-dasharray:21 23;stroke-dashoffset:22;animation:ucqAbEAF_draw_34 5000ms linear 0ms infinite,ucqAbEAF_fade 5000ms linear 0ms infinite;}.ucqAbEAF_35{stroke-dasharray:21 23;stroke-dashoffset:22;animation:ucqAbEAF_draw_35 5000ms linear 0ms infinite,ucqAbEAF_fade 5000ms linear 0ms infinite;}.ucqAbEAF_36{stroke-dasharray:21 23;stroke-dashoffset:22;animation:ucqAbEAF_draw_36 5000ms linear 0ms infinite,ucqAbEAF_fade 5000ms linear 0ms infinite;}.ucqAbEAF_37{stroke-dasharray:27 29;stroke-dashoffset:28;animation:ucqAbEAF_draw_37 5000ms linear 0ms infinite,ucqAbEAF_fade 5000ms linear 0ms infinite;}.ucqAbEAF_38{stroke-dasharray:27 29;stroke-dashoffset:28;animation:ucqAbEAF_draw_38 5000ms linear 0ms infinite,ucqAbEAF_fade 5000ms linear 0ms infinite;}.ucqAbEAF_39{stroke-dasharray:9 11;stroke-dashoffset:10;animation:ucqAbEAF_draw_39 5000ms linear 0ms infinite,ucqAbEAF_fade 5000ms linear 0ms infinite;}.ucqAbEAF_40{stroke-dasharray:293 295;stroke-dashoffset:294;animation:ucqAbEAF_draw_40 5000ms linear 0ms infinite,ucqAbEAF_fade 5000ms linear 0ms infinite;}.ucqAbEAF_41{stroke-dasharray:87 89;stroke-dashoffset:88;animation:ucqAbEAF_draw_41 5000ms linear 0ms infinite,ucqAbEAF_fade 5000ms linear 0ms infinite;}.ucqAbEAF_42{stroke-dasharray:212 214;stroke-dashoffset:213;animation:ucqAbEAF_draw_42 5000ms linear 0ms infinite,ucqAbEAF_fade 5000ms linear 0ms infinite;}.ucqAbEAF_43{stroke-dasharray:58 60;stroke-dashoffset:59;animation:ucqAbEAF_draw_43 5000ms linear 0ms infinite,ucqAbEAF_fade 5000ms linear 0ms infinite;}.ucqAbEAF_44{stroke-dasharray:149 151;stroke-dashoffset:150;animation:ucqAbEAF_draw_44 5000ms linear 0ms infinite,ucqAbEAF_fade 5000ms linear 0ms infinite;}.ucqAbEAF_45{stroke-dasharray:99 101;stroke-dashoffset:100;animation:ucqAbEAF_draw_45 5000ms linear 0ms infinite,ucqAbEAF_fade 5000ms linear 0ms infinite;}.ucqAbEAF_46{stroke-dasharray:158 160;stroke-dashoffset:159;animation:ucqAbEAF_draw_46 5000ms linear 0ms infinite,ucqAbEAF_fade 5000ms linear 0ms infinite;}.ucqAbEAF_47{stroke-dasharray:149 151;stroke-dashoffset:150;animation:ucqAbEAF_draw_47 5000ms linear 0ms infinite,ucqAbEAF_fade 5000ms linear 0ms infinite;}.ucqAbEAF_48{stroke-dasharray:111 113;stroke-dashoffset:112;animation:ucqAbEAF_draw_48 5000ms linear 0ms infinite,ucqAbEAF_fade 5000ms linear 0ms infinite;}.ucqAbEAF_49{stroke-dasharray:158 160;stroke-dashoffset:159;animation:ucqAbEAF_draw_49 5000ms linear 0ms infinite,ucqAbEAF_fade 5000ms linear 0ms infinite;}.ucqAbEAF_50{stroke-dasharray:188 190;stroke-dashoffset:189;animation:ucqAbEAF_draw_50 5000ms linear 0ms infinite,ucqAbEAF_fade 5000ms linear 0ms infinite;}.ucqAbEAF_51{stroke-dasharray:149 151;stroke-dashoffset:150;animation:ucqAbEAF_draw_51 5000ms linear 0ms infinite,ucqAbEAF_fade 5000ms linear 0ms infinite;}.ucqAbEAF_52{stroke-dasharray:106 108;stroke-dashoffset:107;animation:ucqAbEAF_draw_52 5000ms linear 0ms infinite,ucqAbEAF_fade 5000ms linear 0ms infinite;}.ucqAbEAF_53{stroke-dasharray:278 280;stroke-dashoffset:279;animation:ucqAbEAF_draw_53 5000ms linear 0ms infinite,ucqAbEAF_fade 5000ms linear 0ms infinite;}.ucqAbEAF_54{stroke-dasharray:52 54;stroke-dashoffset:53;animation:ucqAbEAF_draw_54 5000ms linear 0ms infinite,ucqAbEAF_fade 5000ms linear 0ms infinite;}.ucqAbEAF_55{stroke-dasharray:116 118;stroke-dashoffset:117;animation:ucqAbEAF_draw_55 5000ms linear 0ms infinite,ucqAbEAF_fade 5000ms linear 0ms infinite;}.ucqAbEAF_56{stroke-dasharray:223 225;stroke-dashoffset:224;animation:ucqAbEAF_draw_56 5000ms linear 0ms infinite,ucqAbEAF_fade 5000ms linear 0ms infinite;}.ucqAbEAF_57{stroke-dasharray:57 59;stroke-dashoffset:58;animation:ucqAbEAF_draw_57 5000ms linear 0ms infinite,ucqAbEAF_fade 5000ms linear 0ms infinite;}.ucqAbEAF_58{stroke-dasharray:28 30;stroke-dashoffset:29;animation:ucqAbEAF_draw_58 5000ms linear 0ms infinite,ucqAbEAF_fade 5000ms linear 0ms infinite;}.ucqAbEAF_59{stroke-dasharray:151 153;stroke-dashoffset:152;animation:ucqAbEAF_draw_59 5000ms linear 0ms infinite,ucqAbEAF_fade 5000ms linear 0ms infinite;}.ucqAbEAF_60{stroke-dasharray:67 69;stroke-dashoffset:68;animation:ucqAbEAF_draw_60 5000ms linear 0ms infinite,ucqAbEAF_fade 5000ms linear 0ms infinite;}.ucqAbEAF_61{stroke-dasharray:22 24;stroke-dashoffset:23;animation:ucqAbEAF_draw_61 5000ms linear 0ms infinite,ucqAbEAF_fade 5000ms linear 0ms infinite;}.ucqAbEAF_62{stroke-dasharray:254 256;stroke-dashoffset:255;animation:ucqAbEAF_draw_62 5000ms linear 0ms infinite,ucqAbEAF_fade 5000ms linear 0ms infinite;}.ucqAbEAF_63{stroke-dasharray:169 171;stroke-dashoffset:170;animation:ucqAbEAF_draw_63 5000ms linear 0ms infinite,ucqAbEAF_fade 5000ms linear 0ms infinite;}.ucqAbEAF_64{stroke-dasharray:324 326;stroke-dashoffset:325;animation:ucqAbEAF_draw_64 5000ms linear 0ms infinite,ucqAbEAF_fade 5000ms linear 0ms infinite;}.ucqAbEAF_65{stroke-dasharray:169 171;stroke-dashoffset:170;animation:ucqAbEAF_draw_65 5000ms linear 0ms infinite,ucqAbEAF_fade 5000ms linear 0ms infinite;}.ucqAbEAF_66{stroke-dasharray:324 326;stroke-dashoffset:325;animation:ucqAbEAF_draw_66 5000ms linear 0ms infinite,ucqAbEAF_fade 5000ms linear 0ms infinite;}.ucqAbEAF_67{stroke-dasharray:57 59;stroke-dashoffset:58;animation:ucqAbEAF_draw_67 5000ms linear 0ms infinite,ucqAbEAF_fade 5000ms linear 0ms infinite;}.ucqAbEAF_68{stroke-dasharray:28 30;stroke-dashoffset:29;animation:ucqAbEAF_draw_68 5000ms linear 0ms infinite,ucqAbEAF_fade 5000ms linear 0ms infinite;}.ucqAbEAF_69{stroke-dasharray:35 37;stroke-dashoffset:36;animation:ucqAbEAF_draw_69 5000ms linear 0ms infinite,ucqAbEAF_fade 5000ms linear 0ms infinite;}.ucqAbEAF_70{stroke-dasharray:5 7;stroke-dashoffset:6;animation:ucqAbEAF_draw_70 5000ms linear 0ms infinite,ucqAbEAF_fade 5000ms linear 0ms infinite;}.ucqAbEAF_71{stroke-dasharray:10 12;stroke-dashoffset:11;animation:ucqAbEAF_draw_71 5000ms linear 0ms infinite,ucqAbEAF_fade 5000ms linear 0ms infinite;}.ucqAbEAF_72{stroke-dasharray:35 37;stroke-dashoffset:36;animation:ucqAbEAF_draw_72 5000ms linear 0ms infinite,ucqAbEAF_fade 5000ms linear 0ms infinite;}.ucqAbEAF_73{stroke-dasharray:5 7;stroke-dashoffset:6;animation:ucqAbEAF_draw_73 5000ms linear 0ms infinite,ucqAbEAF_fade 5000ms linear 0ms infinite;}.ucqAbEAF_74{stroke-dasharray:10 12;stroke-dashoffset:11;animation:ucqAbEAF_draw_74 5000ms linear 0ms infinite,ucqAbEAF_fade 5000ms linear 0ms infinite;}.ucqAbEAF_75{stroke-dasharray:35 37;stroke-dashoffset:36;animation:ucqAbEAF_draw_75 5000ms linear 0ms infinite,ucqAbEAF_fade 5000ms linear 0ms infinite;}.ucqAbEAF_76{stroke-dasharray:5 7;stroke-dashoffset:6;animation:ucqAbEAF_draw_76 5000ms linear 0ms infinite,ucqAbEAF_fade 5000ms linear 0ms infinite;}.ucqAbEAF_77{stroke-dasharray:10 12;stroke-dashoffset:11;animation:ucqAbEAF_draw_77 5000ms linear 0ms infinite,ucqAbEAF_fade 5000ms linear 0ms infinite;}.ucqAbEAF_78{stroke-dasharray:35 37;stroke-dashoffset:36;animation:ucqAbEAF_draw_78 5000ms linear 0ms infinite,ucqAbEAF_fade 5000ms linear 0ms infinite;}.ucqAbEAF_79{stroke-dasharray:5 7;stroke-dashoffset:6;animation:ucqAbEAF_draw_79 5000ms linear 0ms infinite,ucqAbEAF_fade 5000ms linear 0ms infinite;}.ucqAbEAF_80{stroke-dasharray:10 12;stroke-dashoffset:11;animation:ucqAbEAF_draw_80 5000ms linear 0ms infinite,ucqAbEAF_fade 5000ms linear 0ms infinite;}.ucqAbEAF_81{stroke-dasharray:35 37;stroke-dashoffset:36;animation:ucqAbEAF_draw_81 5000ms linear 0ms infinite,ucqAbEAF_fade 5000ms linear 0ms infinite;}.ucqAbEAF_82{stroke-dasharray:5 7;stroke-dashoffset:6;animation:ucqAbEAF_draw_82 5000ms linear 0ms infinite,ucqAbEAF_fade 5000ms linear 0ms infinite;}.ucqAbEAF_83{stroke-dasharray:10 12;stroke-dashoffset:11;animation:ucqAbEAF_draw_83 5000ms linear 0ms infinite,ucqAbEAF_fade 5000ms linear 0ms infinite;}@keyframes ucqAbEAF_draw{100%{stroke-dashoffset:0;}}@keyframes ucqAbEAF_fade{0%{stroke-opacity:1;}92%{stroke-opacity:1;}100%{stroke-opacity:0;}}@keyframes ucqAbEAF_draw_0{8%{stroke-dashoffset: 1144}61.33333333333334%{ stroke-dashoffset: 0;}100%{ stroke-dashoffset: 0;}}@keyframes ucqAbEAF_draw_1{8.32128514056225%{stroke-dashoffset: 495}61.65461847389558%{ stroke-dashoffset: 0;}100%{ stroke-dashoffset: 0;}}@keyframes ucqAbEAF_draw_2{8.642570281124499%{stroke-dashoffset: 450}61.97590361445784%{ stroke-dashoffset: 0;}100%{ stroke-dashoffset: 0;}}@keyframes ucqAbEAF_draw_3{8.963855421686747%{stroke-dashoffset: 239}62.29718875502008%{ stroke-dashoffset: 0;}100%{ stroke-dashoffset: 0;}}@keyframes ucqAbEAF_draw_4{9.285140562248996%{stroke-dashoffset: 239}62.61847389558234%{ stroke-dashoffset: 0;}100%{ stroke-dashoffset: 0;}}@keyframes ucqAbEAF_draw_5{9.606425702811245%{stroke-dashoffset: 434}62.93975903614458%{ stroke-dashoffset: 0;}100%{ stroke-dashoffset: 0;}}@keyframes ucqAbEAF_draw_6{9.927710843373493%{stroke-dashoffset: 348}63.26104417670684%{ stroke-dashoffset: 0;}100%{ stroke-dashoffset: 0;}}@keyframes ucqAbEAF_draw_7{10.248995983935743%{stroke-dashoffset: 309}63.582329317269085%{ stroke-dashoffset: 0;}100%{ stroke-dashoffset: 0;}}@keyframes ucqAbEAF_draw_8{10.570281124497992%{stroke-dashoffset: 309}63.90361445783134%{ stroke-dashoffset: 0;}100%{ stroke-dashoffset: 0;}}@keyframes ucqAbEAF_draw_9{10.891566265060241%{stroke-dashoffset: 157}64.22489959839358%{ stroke-dashoffset: 0;}100%{ stroke-dashoffset: 0;}}@keyframes ucqAbEAF_draw_10{11.21285140562249%{stroke-dashoffset: 16}64.54618473895583%{ stroke-dashoffset: 0;}100%{ stroke-dashoffset: 0;}}@keyframes ucqAbEAF_draw_11{11.534136546184738%{stroke-dashoffset: 16}64.86746987951808%{ stroke-dashoffset: 0;}100%{ stroke-dashoffset: 0;}}@keyframes ucqAbEAF_draw_12{11.855421686746988%{stroke-dashoffset: 16}65.18875502008032%{ stroke-dashoffset: 0;}100%{ stroke-dashoffset: 0;}}@keyframes ucqAbEAF_draw_13{12.176706827309237%{stroke-dashoffset: 16}65.51004016064257%{ stroke-dashoffset: 0;}100%{ stroke-dashoffset: 0;}}@keyframes ucqAbEAF_draw_14{12.497991967871485%{stroke-dashoffset: 309}65.83132530120483%{ stroke-dashoffset: 0;}100%{ stroke-dashoffset: 0;}}@keyframes ucqAbEAF_draw_15{12.819277108433734%{stroke-dashoffset: 309}66.15261044176708%{ stroke-dashoffset: 0;}100%{ stroke-dashoffset: 0;}}@keyframes ucqAbEAF_draw_16{13.140562248995986%{stroke-dashoffset: 157}66.47389558232932%{ stroke-dashoffset: 0;}100%{ stroke-dashoffset: 0;}}@keyframes ucqAbEAF_draw_17{13.461847389558235%{stroke-dashoffset: 16}66.79518072289157%{ stroke-dashoffset: 0;}100%{ stroke-dashoffset: 0;}}@keyframes ucqAbEAF_draw_18{13.783132530120485%{stroke-dashoffset: 16}67.11646586345383%{ stroke-dashoffset: 0;}100%{ stroke-dashoffset: 0;}}@keyframes ucqAbEAF_draw_19{14.10441767068273%{stroke-dashoffset: 16}67.43775100401608%{ stroke-dashoffset: 0;}100%{ stroke-dashoffset: 0;}}@keyframes ucqAbEAF_draw_20{14.425702811244982%{stroke-dashoffset: 16}67.75903614457832%{ stroke-dashoffset: 0;}100%{ stroke-dashoffset: 0;}}@keyframes ucqAbEAF_draw_21{14.746987951807231%{stroke-dashoffset: 22}68.08032128514057%{ stroke-dashoffset: 0;}100%{ stroke-dashoffset: 0;}}@keyframes ucqAbEAF_draw_22{15.068273092369477%{stroke-dashoffset: 83}68.40160642570281%{ stroke-dashoffset: 0;}100%{ stroke-dashoffset: 0;}}@keyframes ucqAbEAF_draw_23{15.389558232931726%{stroke-dashoffset: 22}68.72289156626506%{ stroke-dashoffset: 0;}100%{ stroke-dashoffset: 0;}}@keyframes ucqAbEAF_draw_24{15.710843373493976%{stroke-dashoffset: 33}69.04417670682732%{ stroke-dashoffset: 0;}100%{ stroke-dashoffset: 0;}}@keyframes ucqAbEAF_draw_25{16.032128514056225%{stroke-dashoffset: 77}69.36546184738957%{ stroke-dashoffset: 0;}100%{ stroke-dashoffset: 0;}}@keyframes ucqAbEAF_draw_26{16.353413654618475%{stroke-dashoffset: 81}69.6867469879518%{ stroke-dashoffset: 0;}100%{ stroke-dashoffset: 0;}}@keyframes ucqAbEAF_draw_27{16.674698795180724%{stroke-dashoffset: 64}70.00803212851406%{ stroke-dashoffset: 0;}100%{ stroke-dashoffset: 0;}}@keyframes ucqAbEAF_draw_28{16.995983935742974%{stroke-dashoffset: 37}70.32931726907631%{ stroke-dashoffset: 0;}100%{ stroke-dashoffset: 0;}}@keyframes ucqAbEAF_draw_29{17.317269076305223%{stroke-dashoffset: 15}70.65060240963857%{ stroke-dashoffset: 0;}100%{ stroke-dashoffset: 0;}}@keyframes ucqAbEAF_draw_30{17.63855421686747%{stroke-dashoffset: 67}70.9718875502008%{ stroke-dashoffset: 0;}100%{ stroke-dashoffset: 0;}}@keyframes ucqAbEAF_draw_31{17.95983935742972%{stroke-dashoffset: 15}71.29317269076306%{ stroke-dashoffset: 0;}100%{ stroke-dashoffset: 0;}}@keyframes ucqAbEAF_draw_32{18.281124497991968%{stroke-dashoffset: 33}71.61445783132531%{ stroke-dashoffset: 0;}100%{ stroke-dashoffset: 0;}}@keyframes ucqAbEAF_draw_33{18.602409638554217%{stroke-dashoffset: 33}71.93574297188756%{ stroke-dashoffset: 0;}100%{ stroke-dashoffset: 0;}}@keyframes ucqAbEAF_draw_34{18.923694779116467%{stroke-dashoffset: 22}72.2570281124498%{ stroke-dashoffset: 0;}100%{ stroke-dashoffset: 0;}}@keyframes ucqAbEAF_draw_35{19.244979919678716%{stroke-dashoffset: 22}72.57831325301206%{ stroke-dashoffset: 0;}100%{ stroke-dashoffset: 0;}}@keyframes ucqAbEAF_draw_36{19.566265060240966%{stroke-dashoffset: 22}72.89959839357431%{ stroke-dashoffset: 0;}100%{ stroke-dashoffset: 0;}}@keyframes ucqAbEAF_draw_37{19.887550200803215%{stroke-dashoffset: 28}73.22088353413656%{ stroke-dashoffset: 0;}100%{ stroke-dashoffset: 0;}}@keyframes ucqAbEAF_draw_38{20.20883534136546%{stroke-dashoffset: 28}73.5421686746988%{ stroke-dashoffset: 0;}100%{ stroke-dashoffset: 0;}}@keyframes ucqAbEAF_draw_39{20.53012048192771%{stroke-dashoffset: 10}73.86345381526105%{ stroke-dashoffset: 0;}100%{ stroke-dashoffset: 0;}}@keyframes ucqAbEAF_draw_40{20.85140562248996%{stroke-dashoffset: 294}74.1847389558233%{ stroke-dashoffset: 0;}100%{ stroke-dashoffset: 0;}}@keyframes ucqAbEAF_draw_41{21.17269076305221%{stroke-dashoffset: 88}74.50602409638556%{ stroke-dashoffset: 0;}100%{ stroke-dashoffset: 0;}}@keyframes ucqAbEAF_draw_42{21.49397590361446%{stroke-dashoffset: 213}74.8273092369478%{ stroke-dashoffset: 0;}100%{ stroke-dashoffset: 0;}}@keyframes ucqAbEAF_draw_43{21.815261044176705%{stroke-dashoffset: 59}75.14859437751005%{ stroke-dashoffset: 0;}100%{ stroke-dashoffset: 0;}}@keyframes ucqAbEAF_draw_44{22.136546184738954%{stroke-dashoffset: 150}75.46987951807229%{ stroke-dashoffset: 0;}100%{ stroke-dashoffset: 0;}}@keyframes ucqAbEAF_draw_45{22.457831325301203%{stroke-dashoffset: 100}75.79116465863454%{ stroke-dashoffset: 0;}100%{ stroke-dashoffset: 0;}}@keyframes ucqAbEAF_draw_46{22.779116465863453%{stroke-dashoffset: 159}76.1124497991968%{ stroke-dashoffset: 0;}100%{ stroke-dashoffset: 0;}}@keyframes ucqAbEAF_draw_47{23.100401606425702%{stroke-dashoffset: 150}76.43373493975905%{ stroke-dashoffset: 0;}100%{ stroke-dashoffset: 0;}}@keyframes ucqAbEAF_draw_48{23.42168674698795%{stroke-dashoffset: 112}76.75502008032129%{ stroke-dashoffset: 0;}100%{ stroke-dashoffset: 0;}}@keyframes ucqAbEAF_draw_49{23.7429718875502%{stroke-dashoffset: 159}77.07630522088354%{ stroke-dashoffset: 0;}100%{ stroke-dashoffset: 0;}}@keyframes ucqAbEAF_draw_50{24.06425702811245%{stroke-dashoffset: 189}77.3975903614458%{ stroke-dashoffset: 0;}100%{ stroke-dashoffset: 0;}}@keyframes ucqAbEAF_draw_51{24.3855421686747%{stroke-dashoffset: 150}77.71887550200805%{ stroke-dashoffset: 0;}100%{ stroke-dashoffset: 0;}}@keyframes ucqAbEAF_draw_52{24.70682730923695%{stroke-dashoffset: 107}78.04016064257029%{ stroke-dashoffset: 0;}100%{ stroke-dashoffset: 0;}}@keyframes ucqAbEAF_draw_53{25.0281124497992%{stroke-dashoffset: 279}78.36144578313254%{ stroke-dashoffset: 0;}100%{ stroke-dashoffset: 0;}}@keyframes ucqAbEAF_draw_54{25.349397590361445%{stroke-dashoffset: 53}78.68273092369478%{ stroke-dashoffset: 0;}100%{ stroke-dashoffset: 0;}}@keyframes ucqAbEAF_draw_55{25.670682730923694%{stroke-dashoffset: 117}79.00401606425703%{ stroke-dashoffset: 0;}100%{ stroke-dashoffset: 0;}}@keyframes ucqAbEAF_draw_56{25.991967871485944%{stroke-dashoffset: 224}79.32530120481928%{ stroke-dashoffset: 0;}100%{ stroke-dashoffset: 0;}}@keyframes ucqAbEAF_draw_57{26.313253012048193%{stroke-dashoffset: 58}79.64658634538154%{ stroke-dashoffset: 0;}100%{ stroke-dashoffset: 0;}}@keyframes ucqAbEAF_draw_58{26.634538152610443%{stroke-dashoffset: 29}79.96787148594377%{ stroke-dashoffset: 0;}100%{ stroke-dashoffset: 0;}}@keyframes ucqAbEAF_draw_59{26.95582329317269%{stroke-dashoffset: 152}80.28915662650603%{ stroke-dashoffset: 0;}100%{ stroke-dashoffset: 0;}}@keyframes ucqAbEAF_draw_60{27.277108433734938%{stroke-dashoffset: 68}80.61044176706828%{ stroke-dashoffset: 0;}100%{ stroke-dashoffset: 0;}}@keyframes ucqAbEAF_draw_61{27.598393574297187%{stroke-dashoffset: 23}80.93172690763053%{ stroke-dashoffset: 0;}100%{ stroke-dashoffset: 0;}}@keyframes ucqAbEAF_draw_62{27.919678714859437%{stroke-dashoffset: 255}81.25301204819277%{ stroke-dashoffset: 0;}100%{ stroke-dashoffset: 0;}}@keyframes ucqAbEAF_draw_63{28.240963855421686%{stroke-dashoffset: 170}81.57429718875503%{ stroke-dashoffset: 0;}100%{ stroke-dashoffset: 0;}}@keyframes ucqAbEAF_draw_64{28.562248995983936%{stroke-dashoffset: 325}81.89558232931728%{ stroke-dashoffset: 0;}100%{ stroke-dashoffset: 0;}}@keyframes ucqAbEAF_draw_65{28.883534136546185%{stroke-dashoffset: 170}82.21686746987953%{ stroke-dashoffset: 0;}100%{ stroke-dashoffset: 0;}}@keyframes ucqAbEAF_draw_66{29.204819277108435%{stroke-dashoffset: 325}82.53815261044177%{ stroke-dashoffset: 0;}100%{ stroke-dashoffset: 0;}}@keyframes ucqAbEAF_draw_67{29.526104417670684%{stroke-dashoffset: 58}82.85943775100402%{ stroke-dashoffset: 0;}100%{ stroke-dashoffset: 0;}}@keyframes ucqAbEAF_draw_68{29.847389558232933%{stroke-dashoffset: 29}83.18072289156628%{ stroke-dashoffset: 0;}100%{ stroke-dashoffset: 0;}}@keyframes ucqAbEAF_draw_69{30.16867469879518%{stroke-dashoffset: 36}83.50200803212853%{ stroke-dashoffset: 0;}100%{ stroke-dashoffset: 0;}}@keyframes ucqAbEAF_draw_70{30.48995983935743%{stroke-dashoffset: 6}83.82329317269077%{ stroke-dashoffset: 0;}100%{ stroke-dashoffset: 0;}}@keyframes ucqAbEAF_draw_71{30.811244979919678%{stroke-dashoffset: 11}84.14457831325302%{ stroke-dashoffset: 0;}100%{ stroke-dashoffset: 0;}}@keyframes ucqAbEAF_draw_72{31.132530120481928%{stroke-dashoffset: 36}84.46586345381527%{ stroke-dashoffset: 0;}100%{ stroke-dashoffset: 0;}}@keyframes ucqAbEAF_draw_73{31.453815261044177%{stroke-dashoffset: 6}84.78714859437753%{ stroke-dashoffset: 0;}100%{ stroke-dashoffset: 0;}}@keyframes ucqAbEAF_draw_74{31.775100401606426%{stroke-dashoffset: 11}85.10843373493977%{ stroke-dashoffset: 0;}100%{ stroke-dashoffset: 0;}}@keyframes ucqAbEAF_draw_75{32.096385542168676%{stroke-dashoffset: 36}85.42971887550202%{ stroke-dashoffset: 0;}100%{ stroke-dashoffset: 0;}}@keyframes ucqAbEAF_draw_76{32.41767068273092%{stroke-dashoffset: 6}85.75100401606426%{ stroke-dashoffset: 0;}100%{ stroke-dashoffset: 0;}}@keyframes ucqAbEAF_draw_77{32.73895582329317%{stroke-dashoffset: 11}86.0722891566265%{ stroke-dashoffset: 0;}100%{ stroke-dashoffset: 0;}}@keyframes ucqAbEAF_draw_78{33.06024096385542%{stroke-dashoffset: 36}86.39357429718875%{ stroke-dashoffset: 0;}100%{ stroke-dashoffset: 0;}}@keyframes ucqAbEAF_draw_79{33.38152610441767%{stroke-dashoffset: 6}86.714859437751%{ stroke-dashoffset: 0;}100%{ stroke-dashoffset: 0;}}@keyframes ucqAbEAF_draw_80{33.70281124497992%{stroke-dashoffset: 11}87.03614457831324%{ stroke-dashoffset: 0;}100%{ stroke-dashoffset: 0;}}@keyframes ucqAbEAF_draw_81{34.024096385542165%{stroke-dashoffset: 36}87.3574297188755%{ stroke-dashoffset: 0;}100%{ stroke-dashoffset: 0;}}@keyframes ucqAbEAF_draw_82{34.34538152610442%{stroke-dashoffset: 6}87.67871485943775%{ stroke-dashoffset: 0;}100%{ stroke-dashoffset: 0;}}@keyframes ucqAbEAF_draw_83{34.66666666666667%{stroke-dashoffset: 11}88%{ stroke-dashoffset: 0;}100%{ stroke-dashoffset: 0;}}</style></svg>
