<?xml version="1.0" encoding="utf-8"?>
<!-- Generator: Adobe Illustrator 16.0.0, SVG Export Plug-In . SVG Version: 6.00 Build 0)  -->
<!DOCTYPE svg PUBLIC "-//W3C//DTD SVG 1.1//EN" "http://www.w3.org/Graphics/SVG/1.1/DTD/svg11.dtd" [
	<!ENTITY ns_extend "http://ns.adobe.com/Extensibility/1.0/">
	<!ENTITY ns_ai "http://ns.adobe.com/AdobeIllustrator/10.0/">
	<!ENTITY ns_graphs "http://ns.adobe.com/Graphs/1.0/">
	<!ENTITY ns_vars "http://ns.adobe.com/Variables/1.0/">
	<!ENTITY ns_imrep "http://ns.adobe.com/ImageReplacement/1.0/">
	<!ENTITY ns_sfw "http://ns.adobe.com/SaveForWeb/1.0/">
	<!ENTITY ns_custom "http://ns.adobe.com/GenericCustomNamespace/1.0/">
	<!ENTITY ns_adobe_xpath "http://ns.adobe.com/XPath/1.0/">
]>
<svg version="1.1" xmlns:x="&ns_extend;" xmlns:i="&ns_ai;" xmlns:graph="&ns_graphs;"
	 xmlns="http://www.w3.org/2000/svg" xmlns:xlink="http://www.w3.org/1999/xlink" x="0px" y="0px" width="387.654px"
	 height="408.642px" viewBox="0 0 387.654 408.642" enable-background="new 0 0 387.654 408.642" xml:space="preserve">
<metadata>
	<sfw  xmlns="&ns_sfw;">
		<slices></slices>
		<sliceSourceBounds  height="374.222" width="374.323" x="225.454" y="-479.746" bottomLeftOrigin="true"></sliceSourceBounds>
	</sfw>
</metadata>
<g id="Layer_1">
	<g>
		<path fill="#4B2D59" d="M219.278,117.464v266.732H99.542V117.464H7.824V10.003h302.877v107.461H219.278z"/>
	</g>
</g>
<g id="Layer_3">
	<g>
		<path fill="#FF003D" d="M242.083,268.659v-87.655c21.309,0,31.963-7.67,31.963-23.016c0-14.036-8.145-21.057-24.427-21.057
			c-16.46,0-24.687,9.633-24.687,28.892v218.402H119.43V176.106c0-21.546,2.294-39.213,6.886-53.009
			c4.588-13.792,12.428-26.646,23.517-38.563c12.473-13.222,28.065-23.666,46.775-31.34c18.71-7.671,38.024-11.508,57.948-11.508
			c36.031,0,66.305,11.427,90.82,34.278c24.512,22.855,36.771,51.173,36.771,84.962c0,32.81-11.004,59.417-33.002,79.82
			c-20.099,18.773-50.413,28.157-90.951,28.157L242.083,268.659z"/>
	</g>
</g>
</svg>
